<svg width="1080" height="164" viewBox="0 0 1080 164" fill="none" xmlns="http://www.w3.org/2000/svg">
<mask id="mask0" mask-type="alpha" maskUnits="userSpaceOnUse" x="0" y="0" width="1080" height="164">
<rect width="1080" height="164" fill="#FFF598"/>
</mask>
<g mask="url(#mask0)">
<g filter="url(#filter0_i)">
<path d="M58.5 35.5C-10.3357 46.6757 -27.5 192 -27.5 192L1142.5 173C1142.5 173 1099.35 112.56 1060 88.5C1005.11 54.9371 961.656 43.7424 898.5 56C865.751 62.3561 852.605 92.6149 819.5 88.5C778.121 83.3568 785.386 7.91583 744 13C716.939 16.3243 715.133 48.228 689 56C654.083 66.3844 633.318 44.4258 598 35.5C566.171 27.4558 549.78 11.1871 517 13C497.707 14.067 488.185 27.2968 469 25C451.052 22.8513 445.359 7.29375 427.5 4.50002C380.282 -2.88644 386.258 90.3237 338.5 88.5C302.342 87.1193 298.591 38.0976 262.5 35.5C222.152 32.596 213.729 84.2501 173.5 88.5C124.323 93.6952 107.311 27.5754 58.5 35.5Z" fill="#55C2FF"/>
</g>
<path d="M58.5 35.5C-10.3357 46.6757 -27.5 192 -27.5 192L1142.5 173C1142.5 173 1099.35 112.56 1060 88.5C1005.11 54.9371 961.656 43.7424 898.5 56C865.751 62.3561 852.605 92.6149 819.5 88.5C778.121 83.3568 785.386 7.91583 744 13C716.939 16.3243 715.133 48.228 689 56C654.083 66.3844 633.318 44.4258 598 35.5C566.171 27.4558 549.78 11.1871 517 13C497.707 14.067 488.185 27.2968 469 25C451.052 22.8513 445.359 7.29375 427.5 4.50002C380.282 -2.88644 386.258 90.3237 338.5 88.5C302.342 87.1193 298.591 38.0976 262.5 35.5C222.152 32.596 213.729 84.2501 173.5 88.5C124.323 93.6952 107.311 27.5754 58.5 35.5Z" stroke="white" stroke-width="4"/>
</g>
<defs>
<filter id="filter0_i" x="-29.7545" y="2.08258" width="1176.1" height="211.954" filterUnits="userSpaceOnUse" color-interpolation-filters="sRGB">
<feFlood flood-opacity="0" result="BackgroundImageFix"/>
<feBlend mode="normal" in="SourceGraphic" in2="BackgroundImageFix" result="shape"/>
<feColorMatrix in="SourceAlpha" type="matrix" values="0 0 0 0 0 0 0 0 0 0 0 0 0 0 0 0 0 0 127 0" result="hardAlpha"/>
<feOffset dy="30"/>
<feGaussianBlur stdDeviation="10"/>
<feComposite in2="hardAlpha" operator="arithmetic" k2="-1" k3="1"/>
<feColorMatrix type="matrix" values="0 0 0 0 1 0 0 0 0 1 0 0 0 0 1 0 0 0 0.25 0"/>
<feBlend mode="normal" in2="shape" result="effect1_innerShadow"/>
</filter>
</defs>
</svg>
